<?xml version="1.0" encoding="utf-8"?>
<!-- Generator: Adobe Illustrator 16.0.3, SVG Export Plug-In . SVG Version: 6.00 Build 0)  -->
<!DOCTYPE svg PUBLIC "-//W3C//DTD SVG 1.1//EN" "http://www.w3.org/Graphics/SVG/1.1/DTD/svg11.dtd">
<svg version="1.1" id="Capa_1" xmlns="http://www.w3.org/2000/svg" xmlns:xlink="http://www.w3.org/1999/xlink" x="0px" y="0px"
	 width="71.772px" height="48.507px" viewBox="43.042 0 71.772 48.507" enable-background="new 43.042 0 71.772 48.507"
	 xml:space="preserve">
<g>
	<path fill="#DC0006" d="M75.486,30.37l-0.329,1.348c0,0,3.541-1.42,5.901,0.432c0.749-0.741,0.609-2.066,0.609-2.066
		S77.911,28.532,75.486,30.37z"/>
	<g>
		<path fill="#DC0006" d="M74.522,24.498c0,0-1.707,0.169-3.318,0.956c-0.676-0.104-1.409-0.074-2.147,0.226l-0.006,1.517
			l-0.288,1.634c0,0,0.928-0.956,2.246-1.675c0.783,0.116,1.696,0.418,2.532,1.125c0.808-0.445,0.581-1.51,0.581-1.51
			s-0.209-0.174-0.562-0.398c0.16-0.004,0.322-0.002,0.482,0.013C74.476,25.546,74.522,24.498,74.522,24.498z"/>
		<path fill="#DC0006" d="M68.28,29.786l-0.102,1.218c0,0,2.887-1.72,5.195-0.434c0.551-0.747,0.248-1.883,0.248-1.883
			S70.137,27.853,68.28,29.786z"/>
		<path fill="#DC0006" d="M74.957,20.79c0,0-1.706,0.167-3.318,0.955c-0.674-0.104-1.408-0.074-2.147,0.226l-0.006,1.518
			l-0.287,1.632c0,0,0.928-0.957,2.245-1.677c0.785,0.118,1.695,0.421,2.531,1.129c0.81-0.449,0.582-1.511,0.582-1.511
			s-0.209-0.175-0.561-0.397c0.161-0.006,0.321-0.002,0.481,0.011C74.912,21.838,74.957,20.79,74.957,20.79z"/>
		<path fill="#DC0006" d="M75.663,17.026c0,0-1.707,0.167-3.319,0.954c-0.673-0.104-1.408-0.074-2.146,0.227l-0.007,1.518
			l-0.287,1.633c0,0,0.928-0.957,2.246-1.678c0.784,0.118,1.695,0.422,2.53,1.129c0.809-0.448,0.582-1.511,0.582-1.511
			s-0.21-0.174-0.561-0.397c0.161-0.006,0.32-0.003,0.482,0.01C75.619,18.074,75.663,17.026,75.663,17.026z"/>
		<path fill="#DC0006" d="M71.333,10.696c-3.767,1.901-4.145,2.187-3.594,3.346c0.662,1.399,2.398,3.523,2.398,3.523l0.682-0.141
			c0,0-2.663-2.694-1.927-3.549c0.734-0.856,5.625-3.296,5.619,2.267c0,0,1.332,0.271,1.677,1.258
			C76.152,15.858,75.1,8.794,71.333,10.696z"/>
	</g>
	<g>
		<path fill="#DC0006" d="M93.368,30.003c-0.306,0.53-1.019,2.097-2.117,3.906c0.01,0.008,0.021,0.017,0.032,0.023
			c0.152,0.085,0.306,0.029,0.498,0.229c0.104,0.11,0.206,0.3,0.229,0.457c-0.335-0.122-0.641-0.275-0.908-0.469
			c-0.35,0.565-0.74,1.152-1.165,1.734c0.095,0.155,0.188,0.318,0.278,0.491c0.44,0.397,0.706,0.97,1.032,1.483
			c1.036-0.962,2.211-2.334,3.049-4.147c0.23-0.501,0.487-0.964,0.767-1.394c-0.024-0.587-0.095-1.185-0.117-1.779
			c0.045-0.074,0.087-0.148,0.128-0.224c0.024,0.211,0.05,0.425,0.067,0.641c0.011,0.111-0.007,0.341,0,0.382
			c0.041,0.261-0.024,0.646,0,0.854c1.369-2.065,3.237-3.367,5.2-4.424c1.063-0.575,2.169-1.615,3.164-2.768
			c-0.031-0.017-0.061-0.037-0.094-0.053c0.115-0.104,0.229-0.209,0.343-0.315c0.011,0.012,0.022,0.022,0.034,0.034
			c1.665-2.009,2.944-4.246,3.031-4.916c-0.655-1.634-1.831-2.323-1.831-2.323s-0.51,2.286-3.585,5.941
			C97.254,28.304,94.052,28.818,93.368,30.003z M92.353,34.734c0.383,0.022,0.721,0.019,0.955,0.231
			C93.12,35.343,92.495,34.874,92.353,34.734z"/>
		<path fill="#DC0006" d="M90.254,36.644c-0.1-0.197-0.244-0.414-0.405-0.639c-1.203,1.626-2.691,3.21-4.459,4.237
			c2.854,0.297,5.511,0.748,7.973,1.307c0.119,0.021,0.236,0.043,0.355,0.065c-0.01-0.018-0.02-0.031-0.026-0.045
			c-0.292-0.407-0.588-0.844-0.89-1.294c-2.365-0.513-3.867-0.691-3.867-0.691s1.026-0.547,2.259-1.677
			C90.881,37.46,90.565,37.034,90.254,36.644z"/>
		<path fill="#DC0006" d="M97.291,25.63c4.964-2.902,6.984-8.655,6.984-8.655c-1.021-1.718-1.899-4.102-2.514-5.207
			C93.613,18.07,96.553,23.606,97.291,25.63z"/>
		<path fill="#DC0006" d="M94.094,17.145c-1.633,2.406-5.244,0.418-7.137,1.689c0.31-0.119,0.924,0.081,1.307,1.07
			c1.474,3.815-3.929,4.14-4.474,8.927c-0.548,4.787,3.916,4.636,4.59,7.601c0.194-0.159,0.535-0.588,0.945-1.155
			c-0.119-0.178-0.235-0.359-0.332-0.543c-0.017-0.056-0.049,0.017-0.114,0c-0.021-0.034-0.041-0.068-0.062-0.104
			c0.035-0.035,0.072-0.067,0.108-0.101c0.146,0.234,0.325,0.444,0.483,0.629c0.339-0.474,0.717-1.033,1.097-1.614
			c-0.008-0.012-0.018-0.021-0.024-0.032c-0.028-0.041-0.041-0.091-0.059-0.141c0.075-0.007,0.145-0.02,0.218-0.031
			c0.947-1.464,1.867-3,2.096-3.561c0.453-1.104,3.133-3.108,3.78-3.588c-1.306-3.241-1.025-4.841-1.025-4.841s-2.698,7.175-5.189,8
			c-2.656,0.878-3.8-2.366-2.359-5.132c0.456,1.291,1.139,2.411,2.613,1.524c2.082-1.255,3.853-3.957,4.662-6.971
			c1.303-4.856,6.061-7.779,6.061-7.779s-1.041-1.315-1.359-2.406C98.296,9.006,95.761,14.688,94.094,17.145z"/>
		<path fill="#DC0006" d="M95.28,3.572c0,0-0.886,4.088-2.238,4.738c-1.354,0.648-5.758-0.376-6.214,0.494
			c-0.456,0.869,0.633,5.238,0.633,5.238c0.711,0.224,1.561-0.417,1.568-0.026c0.007,0.393-1.557,0.653-1.238,0.961
			c0.318,0.309,1.253-0.021,1.338,0.291c0.083,0.313-0.292,1.337-0.292,1.337l0.992-1.583l-0.634-0.46c0,0,0.789,0.378,1.011-0.409
			c0.222-0.787-1.58-0.835-1.744-1.225c-0.162-0.389-0.497-1.636-0.027-1.723c0.469-0.085,7.3-0.434,7.527-2.552
			c0.227-2.119,1.732-5.904,0.477-6.119C95.18,2.32,87.595,3.15,86.679,4.733c1.139-2.291,3.238-3.266,4.88-3.45
			c1.643-0.184,6.481-1.204,6.738,0.044c0.257,1.25-1.051,6.771-0.575,7.844c0.682-1.5,2.311-1.526,2.311-1.526
			c-0.065-0.077-0.108-7.442-1.208-7.579c-1.099-0.139-9.864,0.399-11.25,1.832c-1.387,1.433-1.582,3.865-1.582,3.865
			s1.858-1.362,4.514-1.798C93.163,3.529,95.28,3.572,95.28,3.572z"/>
		<path fill="#DC0006" d="M94.613,42.975c-3.851-0.965-7.274-1.446-9.671-1.685c-0.184,0.062-0.261,0.229-0.491,0.242
			c-0.168-0.118-0.351-0.224-0.525-0.334c-0.877-0.073-1.555-0.108-1.983-0.125c-0.361,0.072-0.727,0.121-1.12,0.076
			c-0.017-0.19-0.038-0.38-0.026-0.579c0.624-0.142,1.24-0.4,1.836-0.811c0.112-0.078,0.218-0.163,0.328-0.241
			c0.15,0.124,0.304,0.248,0.457,0.371c0.045-0.007,0.021-0.04,0-0.04c0.062,0.031,0.134,0.069,0.201,0.104
			c1.205-0.684,2.68-1.662,3.833-2.88c-0.896-2.1-2.075-2.394-3.089-2.063c-1.013,0.332-5.919,3.403-9.884,3.941
			c-1.146,0.155-2.062,0.177-2.803,0.11c-0.074,0.447-0.175,0.889-0.132,1.21c0.169-0.01,0.603-0.051,0.917-0.153
			c0.104-0.033,0.202-0.157,0.305-0.192c0.182-0.056,0.48-0.047,0.687-0.113c0.206-0.064,0.408-0.237,0.688-0.074
			c0.006,0.002,0.041,0.139,0.076,0.151c0.275,0.097,0.699,0.006,1.091-0.128c0.145,0.061,0.289,0.121,0.434,0.178
			c0,0.009,0.003,0.016,0.002,0.024c0.236,0.07,0.251,0.079,0.4,0.127c0.028,0.01,0.057,0.02,0.085,0.03
			c-0.947,0.273-2.053,0.078-2.776,0.379c0.03-0.193-0.155,0.064-0.114-0.115c-0.328,0.195-0.514,0.083-0.993,0.229
			c-0.248-0.169-0.42-0.214-0.688-0.077c-0.049,0.242,0.212,0.516,0.306,0.764c0.027,0.074-0.024,0.169,0,0.231
			c0.047,0.119,0.157,0.162,0.192,0.267c0.023,0.075-0.054,0.111-0.038,0.152c0.091,0.25,0.228,0.479,0.343,0.713
			c2.495-0.233,5.005-0.356,7.526-0.356c2.452,0,4.895,0.124,7.321,0.346c-0.011-0.086-0.005-0.18,0.045-0.282
			c0.187,0.092,0.354,0.203,0.57,0.268c0.021,0.025,0.041,0.047,0.063,0.072c2.403,0.24,4.79,0.593,7.155,1.043
			c-0.054-0.082-0.104-0.163-0.153-0.237C94.863,43.328,94.739,43.15,94.613,42.975z M86.818,41.835
			c-0.048-0.142-0.12-0.144-0.268-0.112C86.607,41.497,87.005,41.827,86.818,41.835z"/>
		<path fill="#DC0006" d="M95.025,43.211c0.047,0.056,0.503,0.49,0.498,0.152c-0.003-0.254,0.003,0.263,0.026,0.47
			c2.209,0.431,4.398,0.944,6.56,1.553c-2.458-0.986-4.897-1.745-7.194-2.334C94.95,43.108,94.988,43.162,95.025,43.211z"/>
		<path fill="#DC0006" d="M60.128,44.125c-1.774,0.619-3.688,1.376-5.652,2.298c1.878-0.62,3.781-1.168,5.701-1.65
			c-0.02-0.213-0.043-0.433-0.048-0.608C60.128,44.15,60.128,44.139,60.128,44.125z"/>
		<path fill="#DC0006" d="M71.507,40.691c-0.339-0.148-0.806-0.006-1.145,0.153c-0.106-0.036,0.052-0.118,0-0.229
			c0.212-0.024,0.779-0.115,0.915-0.229c-0.037-0.368-0.13-0.681-0.343-0.878c-0.339,0.101-0.698,0.189-1.069,0
			c-0.065-0.146,0.114-0.237,0.039-0.266c0.361-0.051,0.822,0.038,0.954-0.231c0.008-0.017,0.007-0.043-0.002-0.076
			c-1.228-0.287-1.768-0.905-1.964-1.552c-0.1,1.484,0.354,2.768,0.671,3.557c0.087-0.127,0.504-0.177,0.494-0.056
			c-0.189-0.004-0.187,0.036-0.345,0c-0.017,0.08,0.056,0.074,0.116,0.076c-0.004,0.09-0.175,0.015-0.237,0.046
			c0.105,0.261,0.192,0.463,0.233,0.59c0,0-1.399,0.2-3.656,0.746c-0.013,0.063-0.022,0.128-0.043,0.182
			c-0.086-0.012-0.135-0.062-0.164-0.131c-1.5,0.367-3.354,0.883-5.416,1.588c-0.056,0.219-0.063,0.466-0.065,0.715
			c3.876-0.959,7.829-1.635,11.827-2.017c-0.106-0.215-0.199-0.416-0.187-0.575C71.869,41.678,71.744,41.127,71.507,40.691z
			 M69.216,39.28c0.116-0.015,0.079,0.125,0.115,0.189C69.211,39.485,69.208,39.389,69.216,39.28z"/>
		<path fill="#DC0006" d="M69.429,36.747c-0.068,0.664,0.42,1.077,1.126,1.32c-0.063-0.199-0.146-0.402-0.309-0.469
			c0.028-0.034,0.07-0.057,0.115-0.076c-0.254-0.161-0.146-0.406-0.191-0.687c0.125,0.166,0.186,0.397,0.496,0.381
			c0.044,0.252-0.061,0.211-0.113,0.382c0.056,0.159,0.108,0.348,0.171,0.52c0.191,0.057,0.393,0.104,0.61,0.139
			c0.007-0.04,0.012-0.082,0.019-0.124c0.133-0.005,0.248-0.031,0.229-0.19c0.112,0.129-0.041,0.127,0.153,0.229
			c0.005,0.046,0.004,0.094,0.005,0.139c1.405,0.146,3.127-0.041,4.211-0.26c2.107-0.428,8.239-3.898,8.239-3.898l-2.743-0.109
			c-9.744,2.391-9.234,0.011-9.234,0.011S69.581,35.247,69.429,36.747z M71.658,37.177c0.021,0.032,0.041,0.063,0.04,0.117
			c-0.077-0.003-0.049-0.105-0.153-0.078c0.004-0.097,0.128-0.077,0.229-0.077C71.768,37.185,71.704,37.172,71.658,37.177z"/>
		<path fill="#DC0006" d="M81.457,29.811c0.999-0.331,0.968-1.565,0.968-1.565s-0.197-0.237-0.543-0.56
			c0.179,0.026,0.357,0.064,0.537,0.113c0.661-0.843,0.93-2.001,0.93-2.001s-1.938-0.172-3.902,0.366
			c-0.73-0.256-1.556-0.377-2.44-0.198l-0.327,1.691l-0.662,1.761c0,0,1.235-0.87,2.855-1.399
			C79.722,28.315,80.675,28.846,81.457,29.811z"/>
		<path fill="#DC0006" d="M82.723,25.766c0.994-0.33,0.967-1.563,0.967-1.563s-0.162-0.229-0.451-0.542
			c0.148,0.027,0.298,0.053,0.442,0.095c0.662-0.842,0.933-2.002,0.933-2.002s-1.769-0.158-3.639,0.297
			c-0.708-0.282-1.527-0.421-2.433-0.238l-0.598,1.801l-0.664,1.76c0,0,1.237-0.872,2.858-1.398
			C80.987,24.271,81.94,24.801,82.723,25.766z"/>
		<path fill="#DC0006" d="M86.191,17.704c0,0-1.938-0.171-3.9,0.368c-0.73-0.256-1.556-0.378-2.443-0.199l-0.327,1.691l-0.662,1.76
			c0,0,1.235-0.872,2.857-1.398c0.85,0.296,1.803,0.827,2.587,1.791c0.995-0.33,0.966-1.563,0.966-1.563s-0.199-0.239-0.545-0.561
			c0.182,0.027,0.36,0.064,0.539,0.113C85.921,18.862,86.191,17.704,86.191,17.704z"/>
		<path fill="#DC0006" d="M80.706,17.131c0,0-2.404-3.563-1.406-4.363c1-0.8,5.783-1.893,4.609,4.311c0,0,2.723-1.221,2.897-0.049
			c0.286-1.728,0.484-8.625-4.116-7.295c-4.6,1.329-5.286,2.438-5.286,2.438l2.509,4.973L80.706,17.131z"/>
		<path fill="#DC0006" d="M56.044,43.823c0.044,0.005,0.101,0.013,0.152,0.019c1.433-0.422,2.912-0.835,4.332-1.202
			c0.027-0.147,0.05-0.313,0.097-0.498c0.064-0.252,0.152-0.525,0.247-0.803c-1.433,0.515-3.249,1.188-5.141,1.96
			c2.086-1.073,3.986-1.967,5.36-2.581c0.049-0.138,0.098-0.275,0.145-0.408c-0.1-0.415,0.2-0.608,0.229-0.955
			c0.031-0.349-0.264-0.761,0.229-0.991c0.333-0.042,0.538,0.047,0.688,0.189c-0.003,0.057-0.007,0.109,0.039,0.115
			c-0.036,0.535-0.224,0.831-0.42,1.336c-0.147,0.134-0.257,0.293-0.352,0.465c0.623-0.274,1.094-0.472,1.369-0.578
			c-0.29-1.811-0.14-2.988,0.313-3.885c-0.036,0.012-0.067,0.026-0.109,0.028c-0.077,0.011-0.076,0.102-0.114,0.153
			c-0.612,0.365-1.538,0.422-1.794,1.145c-0.557,0.298-0.822,0.955-1.336,1.298c-0.288,0.192-0.777,0.158-0.84,0.612
			c-0.132-0.008-0.204-0.077-0.306-0.115c-0.9,0.258-1.393,0.233-2.257,0.228c-0.027,0.013-0.056,0.026-0.083,0.039
			c0.034,0.092,0.07,0.187,0.104,0.277c0.036,0.095,0.07,0.189,0.105,0.281c0.034,0.092,0.068,0.188,0.102,0.278
			c0.035,0.096-0.263,0.234-0.298,0.143c-0.034-0.093-0.069-0.187-0.105-0.279c-0.018-0.046-0.035-0.091-0.053-0.14
			c-0.025-0.069-0.053-0.141-0.079-0.209c-0.05-0.129-0.101-0.261-0.15-0.391c-0.063,0-0.119,0-0.186,0
			c-0.171-0.129-0.463-0.103-0.611-0.112c-0.097-0.074,0.035-0.135-0.038-0.231c-0.079-0.241-0.336-0.185-0.496-0.265
			c-0.254-0.128-0.459-0.326-0.679-0.45c-0.103,0.054-0.206,0.104-0.308,0.157c-0.031-0.069-0.062-0.139-0.092-0.207
			c-0.008-0.018-0.016-0.036-0.024-0.055c-0.136,0.016-0.288,0.077-0.463,0.208c-0.104,0.081-0.132,0.223-0.229,0.308
			c-0.145,0.13-0.333,0.166-0.458,0.304c-0.108,0.12-0.156,0.321-0.268,0.421c-0.126,0.114-0.508,0.273-0.61,0.344
			c-0.132-0.237-0.186-0.554-0.306-0.801c0.2-0.081,0.422-0.138,0.458-0.383c0.295-0.043,0.436-0.137,0.609-0.227
			c-0.415-0.855-0.838-1.709-1.275-2.563c-0.572,0.299-1.132,0.606-1.684,0.923c0.291,0.52,1.127,2.089,1.778,3.328
			c-0.027-0.146-0.061-0.292-0.039-0.393c0.12,0.007,0.103,0.151,0.268,0.115c-0.157,0.379,0.329,0.734,0.151,1.003
			c0.164,0.314,0.297,0.574,0.378,0.732c0.034,0.07,0.067,0.138,0.101,0.204c-0.046,0.026-0.093,0.056-0.139,0.083
			c-0.07,0.044-0.139,0.085-0.209,0.128c-0.01-0.022-0.022-0.043-0.034-0.067c-0.012-0.022-0.024-0.045-0.034-0.067
			c-0.009-0.017-0.021-0.056-0.035-0.067c-0.012-0.009-0.019-0.063-0.034-0.067c-0.013-0.002-0.056,0.038-0.07,0.043
			c-0.022,0.008-0.048,0.03-0.069,0.042c-0.023,0.014-0.047,0.031-0.07,0.044c-0.012-0.022-0.024-0.044-0.035-0.067
			c-0.093-0.178-0.185-0.359-0.28-0.536c-0.043-0.083-0.087-0.164-0.13-0.244c-0.389,0.104-0.875,0.459-1.172,0.327
			c-0.199,0.192-0.826,0.463-1.337,0.343c0.232-0.492,1.036-0.414,1.375-0.8c-0.132-0.242-0.239-0.509-0.331-0.779
			c-0.044,0.026-0.091,0.055-0.137,0.083c-0.071,0.047-0.143,0.091-0.214,0.138c-0.268-0.463-0.541-0.929-0.816-1.394
			c-0.612,0.394-1.209,0.797-1.792,1.212c0.042,0.066,0.084,0.133,0.127,0.197c0.308,0.478,1.505,2.391,1.794,2.868
			c0.013,0.021,0.027,0.044,0.04,0.066c0.011,0.019,0.033,0.044,0.039,0.066c0.005,0.012,0.042,0.05,0.04,0.063
			c-0.005,0.02-0.091,0.006-0.104-0.017c-0.011-0.018-0.023-0.052-0.04-0.064c-0.005-0.004-0.1-0.01-0.104-0.018
			c-0.01-0.018-2-3.012-2.68-4.034c-0.256,0.224-0.531,0.423-0.819,0.604c-0.3,0.282-0.625,0.533-0.973,0.754
			c-0.021,0.025-0.041,0.048-0.063,0.071c0.162,0.225,0.334,0.463,0.496,0.688c0.554-0.004,1.051-0.082,1.489,0.143
			c-0.024,0.035-0.046,0.069,0,0.079c0.011,0.041-0.18,0.025-0.077,0c-0.037-0.085-0.223,0.119-0.305,0
			c-0.239,0.135-0.59,0.139-0.895,0.074c0.183,0.255,0.335,0.468,0.415,0.583c-0.321,0.264-0.636,0.533-0.944,0.805
			c0.046,0.063,0.092,0.127,0.138,0.189c0.538,0.737,1.059,1.472,1.571,2.21c0.153-0.337,0.668-0.032,0.821,0.108
			c-0.219,0.148-0.483-0.015-0.792-0.067c0.179,0.259,0.36,0.512,0.535,0.768c-0.02,0.012-0.035,0.043-0.057,0.053
			c-0.013,0.006-0.043,0.053-0.057,0.053c-0.013-0.002-0.033-0.055-0.043-0.064c-0.016-0.011-0.031-0.045-0.043-0.063
			c-0.029-0.041-0.058-0.081-0.087-0.124c-0.038,0.034-0.076,0.068-0.114,0.105c-0.057,0.051-0.114,0.104-0.17,0.157
			c-0.015-0.021-0.029-0.043-0.043-0.063c-0.06-0.082-0.117-0.167-0.176-0.249c-0.06-0.085-0.119-0.167-0.178-0.251
			c-0.119-0.167-0.238-0.336-0.357-0.499c-0.058,0.053-0.116,0.105-0.174,0.158c-0.152,0.145-0.304,0.29-0.455,0.437
			c-0.272-0.369-0.272-0.372-0.545-0.734c-0.007,0-0.013-0.002-0.021-0.002c-0.092,0.005-0.641,1.008-0.678,1.101
			c0.369,0.52,0.359,0.622,0.759,1.098c-0.131,0.196-0.476,0.393-0.454,0.652c0.011,0.123,0.218,0.376,0.375,0.59
			c1.659-0.808,3.347-1.549,5.056-2.24c-0.751-0.104-1.533-0.49-2.166-0.698c0.334-0.03,1.227,0.073,1.528,0.345
			c0.263-0.093,0.733-0.016,0.876,0.26c0.55-0.219,1.1-0.44,1.654-0.649c1.47-0.494,3.34-1.086,5.315-1.669
			C56.006,43.877,56.028,43.851,56.044,43.823z M57.189,40.194c-0.103,0.164-0.127,0.407-0.381,0.421
			C56.852,40.393,56.893,40.165,57.189,40.194z"/>
		<path fill="#DC0006" d="M61.313,41.264c-0.144,0.416-0.402,0.847-0.469,1.294c1.616-0.413,3.14-0.763,4.406-0.984
			c0.179-0.047,0.362-0.089,0.541-0.134c0.009-0.007,0.019-0.015,0.027-0.022c0.019,0,0.033,0.004,0.049,0.006
			c0.815-0.198,1.642-0.39,2.496-0.565l-0.042-2.528c-0.063,0.012-0.126,0.024-0.189,0.033c-0.623,0.098-1.166,0.146-1.64,0.155
			c-0.034,0.282-0.221,0.577-0.293,0.8c-0.033-0.082-0.051-0.494-0.115-0.688c0.046-0.004,0.081-0.053,0.119-0.113
			c-1.798-0.026-2.498-0.668-2.722-1.361c-0.078,1.684,0.211,2.737,0.356,3.167c0,0-0.981,0.317-2.493,0.849
			C61.335,41.203,61.324,41.231,61.313,41.264z"/>
		<path fill="#DC0006" d="M64.467,35.424c0.006,0,0.009-0.001,0.015-0.001c0.009,0.139,0.053,0.147,0,0.266
			c-0.074-0.004-0.158,0.008-0.225-0.004c-0.193,0.278-0.325,0.59-0.34,0.937c-0.057,1.416,2.168,1.515,4.042,1.246
			c0,0,0.326-1.754,2.463-3.095c-3.209,1.438-3.671-0.721-3.671-0.721S65.291,34.521,64.467,35.424z"/>
		<path fill="#DC0006" d="M55.637,35.724c0.063,0.036,0.131,0.063,0.215,0.08c-0.021,0.083-0.055,0.161-0.091,0.238
			c0.163,0.415,0.327,0.832,0.485,1.247c0.152,0.401,0.299,0.801,0.446,1.2c0.025-0.006,0.051-0.012,0.076-0.014
			c0.108,0.044,0.075,0.171,0.039,0.27c0.299,0.8,1.481,0.22,2.1,0.151c0.267-0.071,0.368-0.442,0.648-0.61
			c0.122-0.074,0.299-0.049,0.421-0.116c0.13-0.073,0.16-0.252,0.305-0.269c0.012-0.088,0.06-0.141,0.038-0.266
			c0.091-0.091,0.101,0.095,0.268,0.039c-0.153-0.077,0.062-0.071,0.076-0.19c-0.311-0.19-0.663-0.021-0.879-0.038
			c0.473-0.286,1.069-0.491,1.604-0.803c0.108-0.367,0.483-0.686,0.917-0.916c-0.157,0.095-0.03,0.241-0.153,0.343
			c0.013,0.05,0.068,0.062,0.077,0.116c0.45-0.031,0.756-0.32,1.173-0.313c0.474-0.854,1.232-1.451,2.152-2.111
			c0.069-0.051-0.313-1.287-0.327-1.361c-0.015-0.096-0.03-0.194-0.046-0.292c-0.012-0.074-0.023-0.148-0.035-0.221
			c-0.011-0.073-0.336-1.079-0.351-1.15c-0.028-0.173-0.057-0.345-0.088-0.514c-0.129,0.03-0.257,0.063-0.386,0.097
			c-0.13,0.035-0.258,0.067-0.386,0.101c-0.129,0.034-0.257,0.069-0.386,0.103c-0.095,0.024-0.191,0.053-0.288,0.079
			c-0.029,0.008-0.064,0.021-0.096,0.024c-0.007,0.002-0.008-0.069-0.015-0.071c-0.014-0.006-0.078,0.024-0.095,0.026
			c-0.029,0.001-0.068,0.019-0.096,0.024c-0.032,0.01-0.063,0.019-0.096,0.028c-0.095,0.026-0.191,0.053-0.287,0.08
			c-0.163-0.729-0.331-1.455-0.505-2.183c-0.067,0.019-0.134,0.036-0.201,0.054c-0.012-0.047-0.023-0.096-0.036-0.143
			c-0.012-0.049-0.023-0.098-0.035-0.148c-0.018-0.009,0.001-0.063-0.019-0.072c-0.004,0-0.098,0.025-0.101,0.03
			c-0.007,0.008,0.015,0.063,0.019,0.072c0.005,0.025,0.011,0.049,0.017,0.074c0.006,0.022,0.013,0.046,0.018,0.07
			c0.004,0.019,0.024,0.055,0.018,0.073c-0.002,0.009-0.089,0.02-0.1,0.028c-0.014,0.011,0.03,0.058,0.018,0.074
			c-0.013,0.014-0.083,0.013-0.099,0.026c-0.1,0.03-0.199,0.058-0.3,0.086c-0.037-0.145-0.075-0.288-0.113-0.435
			c-0.025-0.097-0.051-0.194-0.075-0.29c-0.023-0.004-0.082,0.036-0.102,0.028c-0.012-0.006-0.005-0.071-0.019-0.073
			c-0.025,0-0.076,0.024-0.102,0.031c-0.033,0.01-0.066,0.018-0.1,0.029c-0.013-0.05-0.026-0.097-0.039-0.146
			c-0.02-0.071-0.041-0.143-0.06-0.218c-0.007-0.024-0.012-0.049-0.021-0.07c-0.007-0.024-0.012-0.048-0.019-0.074
			c-0.007-0.022-0.012-0.049-0.021-0.07c-0.009-0.024-0.011-0.051-0.02-0.073c-0.004-0.012-0.009-0.068-0.021-0.072
			c-0.007-0.003-0.1,0.032-0.102,0.029c-0.011-0.023-0.014-0.049-0.02-0.073c-0.007-0.023-0.014-0.047-0.021-0.071
			c-0.007-0.026-0.014-0.049-0.02-0.072c-0.007-0.024-0.014-0.048-0.021-0.072c-0.006-0.024-0.009-0.052-0.02-0.074
			c-0.012-0.021-0.014-0.05-0.021-0.07c-0.001-0.007-0.003-0.017-0.004-0.025c-0.033-0.008-0.064-0.016-0.096-0.024
			c-0.011,0.004-0.02,0.006-0.024,0.006c-0.004,0-0.003-0.009-0.004-0.012c-0.037-0.011-0.075-0.022-0.112-0.033
			c-0.003,0-0.006,0.004-0.008,0.004c0-0.002,0-0.004-0.002-0.006c-0.041-0.011-0.082-0.024-0.123-0.037
			c0.013,0.05,0.027,0.097,0.042,0.147c-0.02,0.014-0.091,0.012-0.105,0.028c-0.009,0.013,0.024,0.058,0.021,0.072
			c-0.001,0.022,0.017,0.053,0.022,0.072c0.007,0.024,0.014,0.05,0.021,0.072c0.006,0.021,0.021,0.049,0.021,0.072
			s0.014,0.052,0.021,0.073c0.007,0.02,0.023,0.049,0.021,0.071c-0.001,0.018,0.032,0.057,0.021,0.074
			c-0.005,0.004-0.091,0.025-0.103,0.029c-0.033,0.011-0.068,0.021-0.102,0.031c0.063,0.217,0.126,0.434,0.188,0.65
			c-0.007,0.021,0.032,0.051,0.021,0.072c-0.007,0.014-0.089,0.014-0.101,0.029c-0.014,0.017,0.03,0.056,0.021,0.073
			c-0.006,0.013-0.088,0.019-0.101,0.03c-0.006,0.008,0.019,0.064,0.022,0.072c0.006,0.024,0.014,0.048,0.02,0.073
			c-0.006,0.008-0.099,0.021-0.099,0.029c-0.002,0.023,0.015,0.051,0.021,0.073c0.021,0.071,0.041,0.143,0.063,0.216
			c0.029,0.097,0.056,0.192,0.083,0.289c-0.098,0.03-0.197,0.062-0.293,0.091c-0.026-0.002-0.076,0.037-0.099,0.032
			c-0.009-0.002-0.019-0.064-0.022-0.072c-0.007-0.021-0.008-0.055-0.021-0.072c-0.014-0.019-0.013-0.051-0.021-0.073
			c-0.005-0.01-0.011-0.066-0.022-0.072c-0.02-0.006-0.075,0.034-0.098,0.032c0.015,0.048,0.028,0.097,0.044,0.144
			c-0.02,0.018-0.083,0.015-0.099,0.033c-0.007,0.005,0.019,0.063,0.021,0.069c0.006,0.019,0.028,0.055,0.023,0.072
			c-0.003,0.014-0.089,0.021-0.098,0.031c-0.009,0.013,0.022,0.062,0.021,0.072c0,0.023,0.016,0.051,0.022,0.073
			c0.006,0.022,0.019,0.047,0.021,0.073c0.004,0.021,0.015,0.047,0.022,0.068c0.007,0.025,0.014,0.05,0.022,0.074
			c0.036,0.12,0.072,0.239,0.106,0.36c0.008,0.023,0.017,0.047,0.022,0.07c0.007,0.026,0.016,0.051,0.022,0.073
			c0.021,0.071,0.043,0.144,0.065,0.217c0.028,0.095,0.056,0.189,0.084,0.286c0.028,0.098,0.056,0.192,0.084,0.289
			c0.028,0.098,0.056,0.192,0.083,0.288c0.021,0.073,0.042,0.145,0.063,0.215c-0.187,0.063-0.372,0.124-0.556,0.187
			c0.027,0.093,0.056,0.192,0.085,0.286c0.057,0.191,0.113,0.384,0.169,0.575c0.022,0.071,0.043,0.143,0.065,0.217
			c-0.031,0.007-0.061,0.018-0.091,0.027c-0.12,0.041-0.239,0.083-0.359,0.126c-0.121,0.04-0.239,0.081-0.358,0.126
			c-0.03,0.011-0.06,0.021-0.09,0.031c-0.01-0.033-0.021-0.066-0.03-0.099c-0.038,0.015-0.08,0.021-0.133,0.02
			c-0.006-0.032-0.019-0.063-0.031-0.091c-0.019,0.009-0.037,0.017-0.052,0.018c-0.018,0.006-0.077,0.039-0.09,0.035
			c-0.019-0.007-0.007-0.063-0.023-0.071c-0.06,0.021-0.119,0.042-0.18,0.064c-0.029,0.011-0.06,0.022-0.088,0.032
			c-0.025,0.009-0.07,0.018-0.09,0.032c-0.007,0.006,0.028,0.063,0.023,0.072c-0.004,0.007-0.079,0.029-0.088,0.031
			c-0.029,0.013-0.063,0.021-0.09,0.034c-0.027,0.013-0.06,0.021-0.089,0.033c-0.03,0.009-0.059,0.021-0.088,0.033
			c-0.03,0.012-0.059,0.021-0.09,0.032c-0.028,0.012-0.059,0.022-0.087,0.033c-0.029,0.013-0.061,0.022-0.088,0.034
			c-0.028,0.013-0.06,0.022-0.089,0.033c-0.029,0.012-0.059,0.024-0.088,0.034c-0.028,0.01,0.321,0.952,0.291,0.963
			c-0.03,0.013-0.059,0.023-0.088,0.037c-0.028,0.011-0.061,0.018-0.086,0.032c-0.015,0.007-0.081,0.024-0.087,0.033
			c-0.007,0.012,0.035,0.063,0.025,0.071c-0.018,0.015-0.066,0.027-0.087,0.034c-0.029,0.013-0.059,0.024-0.087,0.035
			c-0.028,0.012-0.058,0.022-0.087,0.035c-0.028,0.013-0.057,0.023-0.086,0.033c-0.058,0.023-0.115,0.049-0.173,0.07
			c-0.086,0.035-0.172,0.07-0.258,0.104c-0.114,0.049-0.23,0.096-0.344,0.145c-0.028,0.011-0.057,0.022-0.085,0.035
			c-0.026,0.01-0.06,0.021-0.085,0.034c-0.016,0.01-0.076,0.024-0.085,0.037c-0.005,0.008,0.024,0.062,0.027,0.071
			c0.009,0.022,0.019,0.045,0.027,0.069c-0.169,0.071-0.339,0.145-0.507,0.217C55.572,35.552,55.603,35.638,55.637,35.724z
			 M64.025,33.093c0.036,0.001,0.029,0.047,0.037,0.078c0.048-0.094,0.077-0.205,0.153-0.27c0.03,0.021,0.062,0.041,0.114,0.039
			c-0.184,0.223-0.258,0.467-0.573,0.649C63.901,33.431,63.958,33.243,64.025,33.093z M63.221,34.352
			c0.101-0.173,0.105-0.434,0.268-0.572c0.236,0.316-0.289,0.616-0.458,0.88C62.887,34.557,63.168,34.447,63.221,34.352z
			 M62.84,34.775c0.027,0.167-0.081,0.197-0.19,0.227C62.656,34.87,62.681,34.754,62.84,34.775z M59.862,37.828
			c-0.074,0.082-0.199,0.084-0.306,0.04C59.585,37.779,59.771,37.851,59.862,37.828z M59.746,37.409
			c-0.087,0.151-0.088,0.395-0.342,0.38c-0.036,0.335-0.435,0.331-0.611,0.421c-0.09-0.011-0.024-0.168,0.038-0.152
			c-0.06-0.078-0.224-0.054-0.229-0.189C59.009,37.738,59.231,37.427,59.746,37.409z"/>
		<path fill="#DC0006" d="M55.815,38.783c0.026,0.001,0.051-0.002,0.076-0.006c-0.029-0.072-0.057-0.146-0.085-0.219
			c-0.073-0.187-0.148-0.37-0.222-0.557c-0.083-0.211-0.167-0.419-0.251-0.627c-0.038-0.094-0.076-0.186-0.114-0.28
			c-0.02-0.046-0.038-0.095-0.057-0.139c-0.014-0.036-0.028-0.07-0.043-0.105c-0.28,0.268-0.578,0.525-0.793,0.825
			C54.569,37.977,55.234,38.756,55.815,38.783z"/>
		<path fill="#DC0006" d="M50.222,39.57c-0.038,0.023-0.076,0.048-0.113,0.071c0.113,0.318,0.273,0.589,0.548,0.739
			C50.513,40.109,50.369,39.839,50.222,39.57z"/>
		<path fill="#DC0006" d="M114.402,47.321c-0.034-0.028-0.071-0.057-0.107-0.086c-0.055-0.044-0.108-0.086-0.163-0.13
			c-0.055-0.042-0.11-0.086-0.163-0.131c-0.074-0.056-0.148-0.112-0.219-0.17c0.05-0.067,0.1-0.133,0.153-0.198
			c-0.052-0.042-0.1-0.089-0.13-0.148c0.065,0.045,0.111,0.082,0.155,0.116c0.295-0.382,0.59-0.76,0.886-1.141
			c-0.058-0.043-0.115-0.088-0.171-0.132c0.024-0.029,0.046-0.058,0.065-0.085c-0.035-0.03-0.074-0.059-0.112-0.089
			c-0.057-0.043-0.116-0.087-0.171-0.129c-0.115-0.088-0.228-0.175-0.342-0.26c-0.232-0.173-0.463-0.343-0.693-0.509
			c-0.012,0.013-0.02,0.029-0.031,0.044c-0.005,0.006-0.023,0.044-0.032,0.044c-0.013,0-0.045-0.044-0.058-0.042
			c-0.012,0.004-0.046-0.041-0.058-0.042c-0.008,0-0.029,0.038-0.033,0.044c-0.01,0.017-0.02,0.031-0.031,0.044
			c-0.032,0.045-0.063,0.089-0.094,0.134l-0.096,0.131c-0.174-0.123-0.348-0.247-0.52-0.369c-0.032,0.046-0.063,0.09-0.093,0.133
			c-0.032,0.046-0.063,0.091-0.096,0.134c-0.03,0.046-0.062,0.088-0.093,0.135c-0.002,0.004-0.003,0.004-0.005,0.008
			c-0.005-0.002-0.007-0.004-0.009-0.004c0.04-0.063,0.081-0.122,0.119-0.184c0.04-0.059,0.081-0.121,0.121-0.182
			c0.068-0.104,0.139-0.211,0.21-0.316c0.14-0.211,0.278-0.422,0.419-0.635c-0.139-0.091-0.278-0.183-0.417-0.272
			c0.061-0.091,0.116-0.184,0.177-0.274c-0.061-0.038-0.119-0.079-0.181-0.116c-0.061-0.039-0.121-0.077-0.182-0.118
			c0.029-0.043,0.059-0.089,0.089-0.135c0.193-0.306,0.388-0.609,0.584-0.916c-0.003-0.014,0.035-0.032,0.029-0.045
			c-0.003-0.008-0.052-0.03-0.063-0.039c-0.015-0.015-0.042-0.028-0.061-0.038c-0.02-0.016-0.042-0.028-0.064-0.041
			c0.021-0.032,0.041-0.062,0.061-0.092c0.077-0.121,0.155-0.245,0.233-0.367c-0.002-0.015,0.032-0.032,0.028-0.045
			c-0.002-0.006-0.057-0.035-0.063-0.041c-0.006-0.004-0.062-0.035-0.062-0.038c-0.002-0.011,0.023-0.039,0.029-0.047
			c0.028-0.046,0.057-0.091,0.085-0.139c-0.011-0.015-0.055-0.023-0.063-0.04c-0.004-0.005,0.026-0.04,0.029-0.045
			c0.01-0.016,0.021-0.03,0.028-0.046c0.005-0.017,0.02-0.03,0.029-0.045c0.029-0.046,0.06-0.093,0.087-0.139
			c-0.002-0.017,0.032-0.03,0.027-0.046c-0.002-0.006-0.055-0.036-0.062-0.041c-0.008-0.004-0.064-0.034-0.064-0.039
			c-0.002-0.009,0.024-0.039,0.03-0.046c0.009-0.013,0.023-0.03,0.026-0.045c0.003-0.009,0.033-0.037,0.03-0.049
			c-0.007-0.012-0.055-0.022-0.063-0.038c0.019-0.03,0.036-0.061,0.056-0.093c0.01-0.015,0.019-0.031,0.028-0.044
			c0.011-0.019,0.02-0.033,0.028-0.047c0.01-0.016,0.022-0.029,0.03-0.046c0.006-0.019,0.02-0.031,0.027-0.049
			c0.004-0.007,0.032-0.038,0.03-0.045c-0.006-0.015-0.056-0.025-0.065-0.038c-0.019,0.028-0.036,0.061-0.057,0.091
			c-0.021,0.031-0.038,0.063-0.056,0.093c-0.039,0.061-0.078,0.124-0.116,0.186c-0.018-0.004-0.049-0.042-0.064-0.04
			c-0.016,0-0.014,0.042-0.029,0.046c-0.017,0.002-0.013,0.042-0.028,0.045c-0.006,0.002-0.055-0.034-0.063-0.038
			c-0.021-0.013-0.043-0.027-0.063-0.041c-0.066,0.109-0.134,0.218-0.199,0.326c-0.042-0.028-0.085-0.052-0.126-0.078
			c-0.02-0.004-0.046-0.039-0.063-0.039c-0.008-0.002-0.025,0.041-0.029,0.047c-0.008,0.015-0.019,0.03-0.027,0.046
			c-0.021-0.014-0.043-0.025-0.063-0.041c-0.021-0.011-0.043-0.023-0.063-0.037c-0.019-0.011-0.047-0.032-0.066-0.038
			c-0.006-0.002-0.019,0.046-0.027,0.048c-0.016,0-0.046-0.038-0.062-0.04c-0.017-0.002-0.049-0.039-0.064-0.039
			c-0.015,0.002-0.014,0.044-0.027,0.048c-0.018-0.002-0.048-0.041-0.063-0.039c-0.012,0-0.017,0.048-0.029,0.048
			c-0.016-0.004-0.049-0.031-0.063-0.038c-0.009-0.006-0.055-0.038-0.062-0.036c-0.015,0-0.015,0.045-0.027,0.043
			c-0.021,0-0.047-0.035-0.064-0.036c-0.015-0.002-0.016,0.046-0.029,0.046c-0.015,0.002-0.046-0.035-0.063-0.037
			c-0.013-0.002-0.017,0.046-0.027,0.048c-0.008,0-0.056-0.035-0.063-0.039c-0.012-0.007-0.051-0.036-0.064-0.037
			c-0.013,0-0.015,0.045-0.027,0.047c-0.016,0.002-0.048-0.038-0.063-0.036c-0.014,0.002-0.014,0.042-0.026,0.045
			c-0.007,0.002-0.057-0.033-0.063-0.036c-0.014-0.007-0.051-0.036-0.064-0.038c-0.013,0-0.017,0.043-0.029,0.047
			c-0.009,0.004-0.049-0.037-0.063-0.035c-0.012,0.002-0.012,0.046-0.026,0.044c-0.012,0-0.05-0.028-0.063-0.036
			c-0.01-0.003-0.056-0.036-0.064-0.036c-0.016,0.002-0.013,0.044-0.027,0.048c-0.016,0-0.047-0.038-0.064-0.037
			c-0.014,0.002-0.012,0.042-0.024,0.047c-0.016,0.004-0.014,0.045-0.028,0.047c-0.008,0.002-0.059-0.039-0.063-0.035
			c-0.011,0.011-0.019,0.031-0.026,0.045c-0.02,0.034-0.037,0.063-0.055,0.095c-0.036,0.064-0.07,0.126-0.108,0.188
			c-0.035,0.064-0.073,0.126-0.106,0.19c-0.039,0.063-0.073,0.124-0.11,0.187c-0.027,0.049-0.053,0.095-0.08,0.141
			c-0.038,0.063-0.075,0.127-0.111,0.189c-0.072,0.125-0.143,0.252-0.216,0.376c-0.026,0.047-0.053,0.096-0.08,0.143
			c-0.037,0.062-0.073,0.124-0.108,0.188c-0.071,0.124-0.145,0.249-0.217,0.375c-0.036,0.063-0.073,0.126-0.108,0.188
			c-0.037,0.065-0.071,0.126-0.107,0.187c-0.038,0.066-0.073,0.126-0.108,0.191c-0.036,0.063-0.073,0.124-0.109,0.188
			c-0.08-0.045-0.16-0.092-0.239-0.137c-0.018,0.031-0.034,0.063-0.053,0.096c-0.037,0.062-0.071,0.125-0.107,0.188
			c-0.026,0.048-0.055,0.093-0.082,0.142c-0.008,0.016-0.018,0.03-0.025,0.048c-0.01,0.016-0.018,0.03-0.028,0.046
			c-0.009,0.015-0.017,0.032-0.026,0.049c-0.009,0.015-0.018,0.03-0.026,0.046s-0.019,0.032-0.026,0.048
			c-0.009,0.015-0.02,0.031-0.026,0.047c-0.014,0.015-0.02,0.03-0.027,0.047c-0.01,0.018-0.018,0.031-0.028,0.046
			c-0.008,0.016-0.017,0.032-0.025,0.05c-0.006,0.005-0.02,0.045-0.027,0.047c-0.014,0.002-0.044-0.032-0.059-0.034
			c-0.009-0.012-0.054-0.019-0.059-0.033c-0.005-0.01,0.024-0.037,0.026-0.048c0.002-0.014,0.021-0.034,0.026-0.047
			c0.009-0.015,0.019-0.029,0.026-0.048c0.008-0.015,0.02-0.029,0.027-0.046c0.009-0.018,0.019-0.032,0.027-0.048
			c0.025-0.047,0.053-0.095,0.078-0.142c0.01-0.016,0.019-0.031,0.027-0.048c0.009-0.015,0.019-0.031,0.027-0.047
			c0.008-0.016,0.019-0.032,0.025-0.048c0.037-0.063,0.073-0.125,0.108-0.189c0.055-0.093,0.106-0.186,0.161-0.281
			c-0.423-0.24-0.845-0.47-1.27-0.695c-0.12,0.224-0.236,0.448-0.356,0.672c-0.181-0.096-0.361-0.188-0.541-0.281
			c-0.079-0.042-0.16-0.087-0.241-0.127c-0.018,0.032-0.033,0.064-0.049,0.097c-0.033,0.066-0.067,0.131-0.098,0.194
			c-0.018,0.032-0.034,0.065-0.052,0.098c-0.023,0.049-0.205-0.186,0.129-0.85c0.317-0.632,0.636-1.267,0.955-1.903
			c-0.072-0.012-0.148-0.032-0.207-0.024c-0.173,0.021-0.34,0.169-0.537,0.19c-0.5,0.059-1.028-0.035-1.488-0.153
			c0.049-0.104,0.223-0.081,0.268-0.19c0.443,0.13,1.212,0.083,1.788-0.017c-0.31-0.152-0.617-0.304-0.928-0.452
			c0.016-0.03,0.031-0.063,0.047-0.096c0.147-0.312,0.293-0.623,0.441-0.934c-0.004-0.014,0.03-0.032,0.024-0.048
			c-0.004-0.007-0.059-0.027-0.065-0.031c-0.022-0.011-0.043-0.021-0.066-0.03c0.048-0.1,0.093-0.198,0.139-0.297
			c-0.003-0.014,0.031-0.034,0.024-0.049c-0.007-0.014-0.059-0.016-0.065-0.029c-0.01-0.017-0.058-0.017-0.068-0.031
			c-0.003-0.006,0.022-0.044,0.025-0.05c0.004-0.01,0.023-0.036,0.021-0.051c0-0.012,0.027-0.032,0.023-0.048
			c-0.001-0.011-0.061-0.021-0.065-0.029c-0.006-0.011,0.022-0.041,0.024-0.049c0.001-0.019,0.016-0.037,0.021-0.051
			c0.01-0.017,0.016-0.034,0.024-0.051c0.007-0.013,0.023-0.031,0.022-0.048c0-0.006-0.063-0.024-0.066-0.03
			c-0.003-0.007,0.02-0.044,0.021-0.049c0.008-0.014,0.024-0.037,0.022-0.052c0-0.012,0.029-0.03,0.025-0.049
			c-0.004-0.01-0.062-0.019-0.066-0.029c-0.006-0.011,0.022-0.039,0.022-0.05c-0.002-0.017,0.019-0.035,0.021-0.047
			c0.01-0.019,0.017-0.035,0.025-0.051c0.005-0.012,0.023-0.037,0.021-0.051c0-0.007-0.063-0.024-0.066-0.03
			c-0.009-0.009,0.029-0.038,0.021-0.048c-0.009-0.015-0.056-0.021-0.067-0.032c0.008-0.017,0.016-0.032,0.022-0.051
			c0.008-0.017,0.016-0.031,0.023-0.048c0.01-0.016,0.017-0.032,0.023-0.051c0.008-0.016,0.015-0.03,0.021-0.049
			c0.008-0.017,0.016-0.032,0.023-0.047c0.008-0.017,0.017-0.033,0.023-0.05c0.005-0.017,0.015-0.033,0.022-0.052
			c0.007-0.013,0.019-0.031,0.021-0.048c0.004-0.012,0.027-0.036,0.023-0.049c-0.003-0.011-0.063-0.02-0.067-0.03
			c-0.008-0.014,0.027-0.038,0.022-0.051c0.017-0.031,0.03-0.065,0.046-0.098c0.007-0.017,0.013-0.033,0.021-0.051
			c0.008-0.015,0.022-0.031,0.024-0.048c0.001-0.012,0.027-0.041,0.023-0.051c-0.009-0.014-0.058-0.018-0.068-0.03l-0.068,0.148
			c-0.008,0.017-0.015,0.033-0.021,0.049c-0.01,0.017-0.018,0.033-0.024,0.051c-0.008,0.015-0.013,0.031-0.022,0.048
			c-0.005,0.008-0.014,0.048-0.021,0.048c-0.015,0.004-0.053-0.029-0.069-0.029c-0.007,0.017-0.015,0.033-0.021,0.05
			c-0.006,0.013-0.022,0.033-0.022,0.05c0,0.004,0.063,0.021,0.066,0.028c0.005,0.007-0.019,0.046-0.022,0.052
			c-0.005,0.016-0.015,0.033-0.021,0.05c-0.019,0-0.051-0.034-0.067-0.032c-0.007,0-0.021,0.045-0.022,0.051
			c-0.008,0.013-0.011,0.037-0.022,0.046c-0.013,0.014-0.017,0.039-0.023,0.05c-0.003,0.009-0.013,0.05-0.022,0.052
			c-0.007,0-0.062-0.035-0.067-0.031c-0.011,0.011-0.016,0.037-0.021,0.049c-0.008,0.017-0.017,0.033-0.023,0.05
			c-0.006,0.013-0.012,0.04-0.021,0.049c-0.005,0.004-0.062-0.03-0.068-0.028c-0.016,0.002-0.008,0.042-0.021,0.049
			c-0.014,0.006-0.008,0.045-0.021,0.049c-0.016,0.004-0.053-0.029-0.069-0.029c0.022-0.051,0.046-0.101,0.069-0.148
			c0.021-0.051,0.043-0.1,0.065-0.148c0.022-0.05,0.045-0.1,0.066-0.149c0.022-0.049,0.045-0.1,0.068-0.148
			c0.006-0.015,0.018-0.031,0.021-0.05c0.002-0.002-0.063-0.026-0.067-0.032c-0.004-0.012,0.029-0.032,0.022-0.047
			c0-0.002-0.065-0.031-0.068-0.031c-0.006,0.002-0.019,0.052-0.022,0.05c-0.022-0.008-0.045-0.021-0.066-0.032
			c-0.022-0.009-0.047-0.018-0.068-0.027c-0.024-0.012-0.047-0.021-0.068-0.032c-0.023-0.009-0.045-0.019-0.069-0.029
			c-0.021-0.01-0.046-0.02-0.067-0.029c-0.01-0.005-0.063-0.021-0.067-0.029c-0.003-0.004,0.026-0.049,0.022-0.051
			c-0.01-0.003-0.063-0.031-0.068-0.031c-0.011,0.004-0.013,0.052-0.022,0.052c-0.017-0.001-0.052-0.023-0.066-0.029
			c-0.024-0.012-0.048-0.021-0.07-0.032c-0.023-0.009-0.046-0.018-0.067-0.028c-0.023-0.01-0.046-0.021-0.068-0.028
			c-0.023-0.011-0.048-0.021-0.069-0.03c-0.01-0.004-0.062-0.02-0.068-0.029c-0.003-0.005,0.027-0.048,0.021-0.05
			c-0.007-0.004-0.063-0.031-0.068-0.029c-0.004,0.002-0.019,0.052-0.022,0.05c-0.021-0.01-0.044-0.021-0.066-0.027
			c-0.022-0.011-0.045-0.021-0.068-0.031c-0.022-0.01-0.046-0.019-0.066-0.028c-0.024-0.01-0.049-0.019-0.072-0.027
			c-0.02-0.008-0.05-0.019-0.065-0.03c-0.014-0.008-0.063-0.019-0.071-0.029c-0.003-0.004,0.025-0.05,0.021-0.05
			c-0.013-0.006-0.057-0.028-0.069-0.027c-0.012,0-0.01,0.046-0.021,0.05c-0.01,0.002-0.056-0.026-0.068-0.03
			c-0.019-0.003-0.046-0.018-0.068-0.026c-0.022-0.011-0.044-0.02-0.067-0.029c-0.021-0.009-0.045-0.019-0.067-0.027
			c-0.026-0.012-0.047-0.021-0.069-0.029c-0.013-0.006-0.062-0.019-0.069-0.028c-0.009-0.011,0.027-0.038,0.02-0.05
			c-0.004-0.006-0.059-0.024-0.069-0.028c-0.002-0.001-0.017,0.05-0.019,0.05c-0.012,0.003-0.059-0.023-0.069-0.027
			c-0.022-0.002-0.049-0.019-0.069-0.025c-0.021-0.012-0.045-0.021-0.069-0.03c-0.023-0.009-0.046-0.018-0.069-0.027
			c-0.01-0.005-0.062-0.021-0.067-0.027c-0.002-0.006,0.025-0.047,0.021-0.051c-0.01-0.001-0.063-0.029-0.069-0.025
			c-0.009,0-0.009,0.049-0.021,0.049c-0.018-0.002-0.051-0.02-0.067-0.024c-0.023-0.012-0.047-0.021-0.071-0.03
			c-0.021-0.01-0.045-0.017-0.067-0.028c-0.023-0.006-0.047-0.018-0.068-0.026c-0.023-0.008-0.049-0.017-0.068-0.026
			c-0.014-0.005-0.064-0.018-0.072-0.026c-0.002-0.005,0.026-0.048,0.021-0.052c-0.007-0.002-0.063-0.029-0.069-0.026
			c-0.015,0.004-0.006,0.045-0.02,0.051c-0.046-0.017-0.093-0.035-0.137-0.054c-0.016,0.033-0.028,0.068-0.042,0.103
			c-0.546,1.423-1.093,2.848-1.64,4.271c0.418,0.377,1.023,0.684,1.264,1.203c0.45,0.352,0.973,0.632,1.259,1.145
			c0.517,0.399,1.075,0.761,1.414,1.338c-0.244,0.409-0.677,0.043-1.069,0.228c-0.236-0.588-0.292-1.359-1.031-1.449
			c-0.289-0.68-0.872-1.063-1.296-1.604c-0.52-0.194-0.839-0.664-1.188-1.063c-0.002,0-0.004-0.002-0.004-0.002
			c-0.019-0.006-0.045-0.019-0.064-0.022s-0.047-0.016-0.065-0.023c-0.02-0.007-0.041-0.017-0.063-0.023
			c-0.023-0.008-0.043-0.017-0.064-0.023c-0.021-0.008-0.042-0.015-0.063-0.022c-0.023-0.007-0.045-0.016-0.065-0.023
			c-0.064-0.024-0.129-0.047-0.191-0.067c-0.087-0.031-0.174-0.061-0.259-0.092c-0.017,0.052-0.034,0.103-0.054,0.153
			c-0.148,0.426-0.3,0.854-0.448,1.282c-0.064-0.023-0.125-0.046-0.189-0.068c-0.041-0.015-0.083-0.028-0.124-0.041
			c0.019-0.052,0.034-0.104,0.053-0.156c0.204-0.587,0.406-1.176,0.606-1.765c-0.202-0.173-0.4-0.356-0.567-0.563
			c-0.021-0.03-0.041-0.062-0.039-0.113c0.069-0.065,0.218-0.004,0.373,0.081c0.009-0.028,0.018-0.055,0.027-0.083
			c0.035-0.104,0.069-0.204,0.104-0.309c0.023-0.069,0.045-0.138,0.067-0.204c-0.005-0.015,0.026-0.041,0.019-0.053
			c-0.006-0.008-0.057-0.016-0.065-0.022c-0.019-0.01-0.048-0.016-0.07-0.022c-0.02-0.008-0.042-0.016-0.064-0.022
			c0.012-0.032,0.022-0.067,0.034-0.102c0.013-0.035,0.022-0.07,0.034-0.103c0.232-0.705,0.706-2.336,0.94-3.039
			c-0.046-0.017-0.095-0.032-0.141-0.046c-0.161-0.054-0.324-0.106-0.487-0.157c0.066-0.208,0.133-0.413,0.198-0.622
			c-0.189-0.06-0.377-0.117-0.565-0.178c0.005-0.017,0.009-0.035,0.017-0.051c0.002-0.008,0.021-0.044,0.015-0.052
			c-0.004-0.006-0.063-0.021-0.069-0.022c-0.024-0.006-0.048-0.014-0.073-0.021c-0.023-0.007-0.046-0.013-0.07-0.021
			c-0.022-0.007-0.047-0.017-0.071-0.021c-0.018-0.006-0.05-0.021-0.071-0.021c-0.008,0-0.009,0.047-0.014,0.051
			c-0.006,0.004-0.063-0.019-0.073-0.021c-0.022-0.008-0.046-0.017-0.068-0.022c-0.023-0.004-0.051-0.012-0.075-0.019
			c-0.069-0.021-0.139-0.043-0.209-0.063c-0.027-0.006-0.048-0.014-0.071-0.021c-0.024-0.007-0.049-0.015-0.072-0.021
			c-0.024-0.007-0.048-0.015-0.07-0.021c-0.022-0.006-0.049-0.014-0.072-0.019c-0.022-0.006-0.048-0.014-0.069-0.021
			c-0.024-0.006-0.048-0.014-0.074-0.021c-0.021-0.006-0.045-0.014-0.068-0.02c-0.004-0.003-0.011,0.051-0.016,0.053
			c-0.002,0.002-0.069-0.019-0.071-0.021c-0.005-0.006,0.02-0.052,0.016-0.053c-0.022-0.01-0.05-0.014-0.073-0.021
			c-0.024-0.008-0.045-0.014-0.071-0.021c-0.021-0.006-0.046-0.016-0.07-0.019c-0.022-0.006-0.046-0.017-0.071-0.02
			c-0.011-0.003-0.063-0.023-0.072-0.02c-0.006,0.001-0.006,0.05-0.016,0.05c-0.004,0-0.008-0.004-0.015-0.004
			c-0.039,0.064-0.076,0.131-0.096,0.188c-0.806,0.149-1.026,1.084-1.794,1.146c-0.022-0.385,0.673-0.367,0.61-0.918
			c0.34-0.132,0.71-0.316,1.034-0.481c-0.009-0.003-0.016-0.005-0.022-0.007c-0.024-0.006-0.049-0.014-0.072-0.019
			c-0.071-0.02-0.145-0.038-0.215-0.059c-0.095-0.024-1.02-0.177-1.112-0.2c-0.344,0.8-0.719,1.541-1.101,2.23
			c0.076,0.22,0.114,0.521,0.307,0.711c0.449,0.186,0.981,0.341,1.335,0.345c-0.416,0.373-1.138-0.125-1.642,0.305
			c-0.085-0.093-0.107-0.248-0.268-0.265c-0.128,0.43,0.063,0.945,0.039,1.524c-0.363-0.232-0.431-0.757-0.789-0.95
			c-0.969,1.461-1.887,2.52-2.421,3.091c0.161,0.214,0.318,0.433,0.453,0.673c4.514,0.923,8.924,2.854,12.705,4.932
			c-4.517-2.108-8.969-3.341-12.051-4.021c0.052,0.072,0.103,0.151,0.154,0.248c0.204,0.374,0.524,0.733,0.811,1.09
			c4.089,0.75,8.107,1.813,12.021,3.17c0.197,0.067,0.395,0.139,0.588,0.208c-0.007-0.013-0.011-0.027-0.018-0.04
			c-0.09-0.074-0.199-0.132-0.305-0.19c-0.107-0.526-0.703-0.958-0.344-1.413c0.328-0.044,0.405,0.482,0.687,0.612
			c-0.049,0.093,0.086,0.185,0,0.189c0.412,0.417,0.684,0.972,1.413,1.068c0.107,0.114,0.191,0.253,0.268,0.397
			c0.965,0.365,1.923,0.749,2.872,1.151c-0.002-0.008-0.001-0.013-0.002-0.02c-0.004-0.025-0.01-0.051-0.007-0.076
			c0.088,0.034,0.17,0.104,0.247,0.187c0.107,0.048,0.217,0.099,0.325,0.147c0.808,0.366,1.61,0.747,2.406,1.138
			c-0.002-0.032-0.004-0.066,0-0.099c0.043-0.276,0.252-0.502,0.312-0.725c-0.002-0.002-0.008-0.007-0.01-0.009
			C114.438,47.351,114.419,47.335,114.402,47.321z M96.782,40.385c0.084-0.072,0.203,0.052,0.268,0.115
			C97.021,40.552,96.752,40.52,96.782,40.385z M98.692,37.139c-0.017-0.021,0.024-0.049,0.038-0.036
			c-0.475-0.364-1.439-0.693-2.139-0.993c0.98,0.061,1.759,0.549,2.366,1.029C98.841,37.191,98.848,37.131,98.692,37.139z
			 M98.958,34.43c0.189,0.026,0.352,0.081,0.422,0.229C99.27,34.984,98.954,34.738,98.958,34.43z M113.506,46.076
			c0.085,0.08,0.205,0.123,0.19,0.303C113.6,46.312,113.553,46.192,113.506,46.076z"/>
		<path fill="#DC0006" d="M94.778,34.989c-0.109,0.175-0.219,0.35-0.327,0.518c0.042-0.011,0.084-0.022,0.116-0.046
			C94.705,35.34,94.755,35.169,94.778,34.989z"/>
		<path fill="#DC0006" d="M91.445,39.242c0.254,0.043,0.507,0.09,0.758,0.143c-0.12-0.182-0.241-0.361-0.363-0.542
			C91.594,39.1,91.445,39.242,91.445,39.242z"/>
	</g>
	<g>
		<path fill="#DC0006" d="M78.304,2.441c-0.964,0.294-8.147,3.815-8.869,5.344c-0.089,0.188,0.495,1.86,0.443,2.054
			c-0.443-2.054,2.401-3.755,2.708-3.922c1.319-0.72,4.128-2.62,4.727-1.812c0.598,0.809,0.598,0.809,0.039,4.351
			c1.028-0.795,2.265-4.424,2.265-4.424C79.54,3.998,79.267,2.149,78.304,2.441z"/>
	</g>
</g>
</svg>
